<?xml version="1.0" encoding="utf-8"?>
<!-- Generator: Adobe Illustrator 24.0.1, SVG Export Plug-In . SVG Version: 6.00 Build 0)  -->
<svg version="1.1" id="Layer_1" xmlns="http://www.w3.org/2000/svg" xmlns:xlink="http://www.w3.org/1999/xlink" x="0px" y="0px"
	 viewBox="0 0 94 94" style="enable-background:new 0 0 94 94;" xml:space="preserve">
<style type="text/css">
	.st0{fill:#FDFCFA;}
</style>
<path class="st0" d="M9.8,1.6v55.9c0,0.8,0,1.6,0.1,2.4c0,0.2,0,0.4,0,0.6c0.1,0.8,0.2,1.6,0.3,2.3c0,0.2,0.1,0.4,0.1,0.5
	c0.1,0.7,0.3,1.4,0.5,2.1c0,0.2,0.1,0.3,0.1,0.5c0.2,0.6,0.4,1.3,0.6,1.9c0.1,0.2,0.1,0.3,0.2,0.5c0.2,0.6,0.4,1.2,0.7,1.8
	c0.1,0.1,0.1,0.3,0.2,0.4c0.2,0.6,0.5,1.1,0.8,1.7c0.1,0.1,0.1,0.3,0.2,0.4c0.3,0.5,0.5,1,0.8,1.4c0.1,0.2,0.2,0.4,0.4,0.6
	c2.2,3.6,5,6.8,8.4,9.4c0.1,0.1,0.2,0.2,0.3,0.2c0.4,0.3,0.8,0.6,1.3,0.9c0.1,0.1,0.2,0.1,0.3,0.2c0.4,0.3,0.9,0.6,1.3,0.9
	c0.1,0.1,0.2,0.1,0.3,0.2c0.5,0.3,0.9,0.5,1.4,0.8c0.1,0.1,0.2,0.1,0.3,0.2c0.5,0.3,0.9,0.5,1.4,0.7c0.1,0.1,0.2,0.1,0.4,0.2
	c0.5,0.2,1,0.5,1.5,0.7c0.1,0.1,0.2,0.1,0.4,0.2c0.5,0.2,0.9,0.4,1.4,0.5c0.2,0.1,0.4,0.2,0.6,0.2c4,1.4,8.2,2.1,12.7,2.1
	c0.1,0,0.2,0,0.3,0c0.2,0,0.3,0,0.5,0c0.7,0,1.3,0,2-0.1c0.2,0,0.3,0,0.5,0c0.7-0.1,1.4-0.1,2.1-0.2c0.2,0,0.4-0.1,0.5-0.1
	c0.8-0.1,1.5-0.3,2.2-0.4c0.2,0,0.4-0.1,0.6-0.1c0.8-0.2,1.6-0.4,2.4-0.6c0.2-0.1,0.4-0.1,0.6-0.2c0.9-0.3,1.7-0.6,2.6-0.9
	c0.2-0.1,0.5-0.2,0.7-0.3c0.9-0.4,1.8-0.8,2.7-1.2c0.4-0.2,0.8-0.4,1.3-0.7c9.3-5.3,16-14.3,17.6-24.8c0.1-0.4,0.1-0.9,0.2-1.4
	c0.1-0.9,0.1-1.8,0.2-2.8c0-0.2,0-0.5,0-0.7c0,0,0,0,0,0V1.6H9.8z M10.4,6.9h36.2l-0.7,2H10.4V6.9z M44.4,21.7l0.6,1.8H29.6
	c-0.4-0.7-0.7-1.4-1-2h10L37,23.1L44.4,21.7z M54.8,21.4h10c-0.3,0.6-0.6,1.3-1,2H48.4l0.6-1.8l7.4,1.4L54.8,21.4L54.8,21.4z
	 M63.6,23.9c-0.4,0.7-0.8,1.3-1.2,2H47.6l0.6-2H63.6L63.6,23.9z M47.5,26.3h14.6c-0.5,0.7-1,1.4-1.6,2H46.9
	C46.9,28.3,47.5,26.3,47.5,26.3z M60.2,28.7c-0.6,0.7-1.3,1.4-2.1,2H35.3c-0.8-0.6-1.5-1.3-2.1-2h13.4l0.1,0.2l0.1-0.2H60.2
	L60.2,28.7z M39.2,33.2c-1.2-0.6-2.3-1.3-3.4-2h21.7c-1,0.8-2.1,1.5-3.4,2H39.2L39.2,33.2z M53.3,33.6c-1.9,0.7-4.1,1.2-6.6,1.2
	c-2.5,0-4.7-0.5-6.6-1.2C40.1,33.6,53.3,33.6,53.3,33.6z M32.9,28.3c-0.6-0.7-1.1-1.4-1.6-2h14.6l0.6,2H32.9L32.9,28.3z M31,25.9
	c-0.5-0.7-0.9-1.4-1.2-2h15.3l0.6,2H31z M28.4,21c-0.1-0.3-0.3-0.6-0.4-0.9L27.7,19h13.2L39,21L28.4,21L28.4,21z M46.7,35.4
	c10.6,0,16-7.9,18.3-13c-0.6,3.8-2.1,9.1-5.8,12.8c-3.1,3.2-7.4,4.8-12.6,4.8s-9.4-1.6-12.6-4.8c-3.7-3.8-5.2-9-5.8-12.8
	C30.7,27.5,36.1,35.4,46.7,35.4z M64.9,21H54.4l-1.9-2h13.2l-0.4,1.1C65.2,20.4,65.1,20.7,64.9,21z M54.6,22.1l-6-1.2l-1.9,5.9
	L44.8,21l-6,1.2l4.2-4.4l-4.2-4.6l6,1.5l1.9-5.8l1.9,5.8l6-1.5l-4.2,4.6L54.6,22.1L54.6,22.1z M10.4,9.3h35.5l-0.7,2H10.4V9.3z
	 M10.4,11.7h34.7l-0.7,2.2L37,12.1l1.5,1.7H10.4V11.7L10.4,11.7z M10.4,14.1h28.5l1.8,2H10.4V14.1z M10.4,16.6h30.7l1,1.1l-0.8,0.9
	H27.6l-0.3-0.9l0,0.9h-17V16.6z M10.4,19h17l0.1,1.2c0,0.2,0,0.5,0.1,0.8H10.4V19z M10.4,21.4h17.2c0.1,0.6,0.2,1.3,0.3,2H10.4V21.4
	z M10.4,23.9H28c0.1,0.7,0.3,1.3,0.5,2h-18V23.9z M10.4,26.3h18.1c0.2,0.7,0.4,1.3,0.7,2H10.4V26.3z M10.4,28.7h18.9
	c0.3,0.7,0.6,1.4,0.9,2H10.4V28.7z M10.4,31.1h20c0.4,0.7,0.8,1.4,1.2,2H10.4V31.1z M10.4,33.6h21.5c0.5,0.7,1.1,1.4,1.7,2H10.4
	V33.6z M10.4,36H34c0.8,0.8,1.6,1.5,2.6,2H10.4V36z M10.4,38.4h26.8c1.8,1,3.7,1.7,5.9,2H10.4V38.4z M10.4,57.5V45.8h9.4l-9.4,13.3
	C10.4,58.6,10.4,58,10.4,57.5L10.4,57.5z M10.8,62.1c-0.1-0.8-0.2-1.6-0.3-2.4l9.8-13.9h1.9L10.8,62.1L10.8,62.1z M10.8,62.7
	l11.9-16.9h1.9l-13.4,19C11.1,64.1,11,63.4,10.8,62.7L10.8,62.7z M11.4,65.3l13.8-19.5h1.9L12,67.3C11.8,66.7,11.6,66,11.4,65.3
	L11.4,65.3z M12.1,67.8l15.5-21.9h1.9L12.8,69.6C12.5,69,12.3,68.4,12.1,67.8L12.1,67.8z M13,70l17.1-24.2H32L13.7,71.7
	C13.5,71.1,13.2,70.6,13,70L13,70z M13.9,72.1l18.6-26.2h1.8L14.7,73.5C14.4,73,14.2,72.6,13.9,72.1L13.9,72.1z M15.1,74.1l20-28.3
	h15L23.4,83.5C20,80.9,17.2,77.7,15.1,74.1L15.1,74.1z M23.7,83.8l26.8-38h1.9L25,84.7C24.5,84.4,24.1,84.1,23.7,83.8L23.7,83.8z
	 M25.3,85L53,45.8h1.9l-28.3,40C26.2,85.6,25.7,85.3,25.3,85L25.3,85z M27,86l28.4-40.2h1.9l-29,41C27.9,86.6,27.4,86.3,27,86L27,86
	z M28.7,87l29.1-41.2h1.9L30.1,87.8C29.6,87.5,29.2,87.3,28.7,87z M30.5,87.9l29.8-42.1h1.9L32,88.6C31.5,88.4,31,88.2,30.5,87.9
	L30.5,87.9z M33.8,89.3c-0.5-0.2-1-0.3-1.4-0.5l30.4-42.9h1.8L33.8,89.3L33.8,89.3z M47.4,91.5c-0.2,0-0.5,0-0.7,0
	c-4.3,0-8.5-0.7-12.3-2l30.9-43.7h14.4L47.4,91.5z M49.9,91.4c-0.7,0.1-1.3,0.1-2,0.1l32.3-45.7h1.9C82.1,45.8,49.9,91.4,49.9,91.4z
	 M66.5,86l15.8-22.4C80.6,72.9,74.7,80.9,66.5,86z M82.6,62.1L65.2,86.7c-0.9,0.5-1.8,1-2.8,1.4l20.5-29
	C82.8,60.2,82.7,61.2,82.6,62.1L82.6,62.1z M82.9,57.5c0,0.3,0,0.6,0,1l-21.2,30c-0.9,0.4-1.8,0.7-2.7,1l23.9-33.8V57.5L82.9,57.5z
	 M82.9,55L58.4,89.7c-0.8,0.3-1.6,0.5-2.4,0.7l27-38.2V55L82.9,55z M82.9,51.6l-27.6,39c-0.7,0.2-1.5,0.3-2.3,0.4l29.8-42.2
	L82.9,51.6L82.9,51.6z M82.9,48.1l-30.4,43c-0.7,0.1-1.4,0.2-2.1,0.3l32.2-45.5h0.3V48.1L82.9,48.1z M82.9,45.2H10.4v-1.9h72.5
	L82.9,45.2L82.9,45.2z M82.9,42.9H10.4v-2h72.5L82.9,42.9L82.9,42.9z M82.9,40.5H50.3c2.2-0.3,4.2-1,5.9-2h26.8V40.5z M82.9,38H56.8
	c0.9-0.6,1.8-1.3,2.6-2h23.5L82.9,38L82.9,38z M82.9,35.6H59.8c0.6-0.6,1.2-1.3,1.7-2h21.5L82.9,35.6L82.9,35.6z M82.9,33.2H61.7
	c0.4-0.7,0.8-1.3,1.2-2h20V33.2z M82.9,30.8H63.1c0.3-0.7,0.6-1.4,0.9-2h18.9L82.9,30.8L82.9,30.8z M82.9,28.3H64.2
	c0.2-0.7,0.5-1.4,0.7-2h18.1V28.3z M82.9,25.9h-18c0.2-0.7,0.3-1.4,0.5-2h17.6V25.9z M82.9,23.5H65.5c0.1-0.7,0.2-1.4,0.3-2h17.2
	V23.5z M82.9,21H65.8c0-0.3,0.1-0.5,0.1-0.8L66,19h17V21z M82.9,18.6H66l0.1-0.8l-0.3,0.8H52.1l-0.8-0.9l1-1.1h30.7V18.6z
	 M82.9,16.2H52.6l1.8-2h28.5L82.9,16.2L82.9,16.2z M82.9,13.8H54.9l1.5-1.7L49,13.9l0,0l-0.7-2.2h34.7L82.9,13.8L82.9,13.8z
	 M82.9,11.3H48.1l-0.7-2h35.5L82.9,11.3L82.9,11.3z M82.9,8.9H47.4l-0.7-2h36.2L82.9,8.9L82.9,8.9z M82.9,6.5H10.4v-2h72.5L82.9,6.5
	L82.9,6.5z M82.9,4H10.4V2.2h72.5L82.9,4L82.9,4z"/>
</svg>
