<?xml version="1.0" encoding="utf-8"?>
<!-- Generator: Adobe Illustrator 24.0.1, SVG Export Plug-In . SVG Version: 6.00 Build 0)  -->
<svg version="1.1" id="Layer_1" xmlns="http://www.w3.org/2000/svg" xmlns:xlink="http://www.w3.org/1999/xlink" x="0px" y="0px"
	 viewBox="0 0 94 94" style="enable-background:new 0 0 94 94;" xml:space="preserve">
<style type="text/css">
	.st0{fill:#FDFCFA;}
</style>
<path class="st0" d="M8.8,1.2v56.1c0,19.2,16.6,34.8,37,34.8s37-15.6,37-34.8V1.2H8.8z M41.2,1.9h2v4.8c-0.8,0.4-1.5,0.7-2,1V1.9
	L41.2,1.9z M41.2,15.7c0.8-0.1,1.9-0.2,1.9-0.2s0,0.1,0.1,0.4v3.3c-0.1,0-0.2,0-0.3,0c-0.1,0-0.2-0.1-0.4-0.2
	c-0.3-0.2-0.8-0.4-1.4-0.4L41.2,15.7L41.2,15.7z M38.7,1.9h2v6c0,0-0.1,0.1-0.1,0.1c-0.4,0.2-1.1,0.6-1.9,1V1.9L38.7,1.9z
	 M38.2,18.1c-0.1-0.1-0.2-0.3-0.4-0.5c-0.1-0.2-0.2-0.5-0.3-0.8c0.2-0.4,0.3-0.8,0.4-1c0.1,0,0.3,0,0.4,0c0.4,0,0.7,0,1,0
	c-0.2,0.3-0.5,0.6-0.6,0.9C38.5,16.9,38.3,17.7,38.2,18.1z M38.3,18.7L38.3,18.7c-0.4,0.1-0.8,0-1.1,0c-0.2,0-0.3,0-0.5-0.1l0-0.2
	c0.1-0.4,0.2-0.9,0.3-1c0,0,0.1-0.1,0.1-0.2c0.1,0.2,0.1,0.4,0.2,0.5C37.9,18.5,38.2,18.6,38.3,18.7L38.3,18.7L38.3,18.7z
	 M38.7,17.7c0.1-0.4,0.2-0.8,0.3-1c0.1-0.3,0.6-0.8,0.8-1c0.3,0,0.6,0,0.9,0v2.9c-0.3,0-0.6,0-0.9,0c-0.4,0-0.7,0-1.1,0.1L38.7,17.7
	L38.7,17.7z M36.3,1.9h2v7.3c-0.7,0.4-1.5,0.8-2,1.2C36.3,10.4,36.3,1.9,36.3,1.9z M36,16.4c0.4-0.2,0.9-0.4,1.5-0.5
	c-0.3,0.6-0.6,1.3-0.7,1.3c-0.2,0.2-0.3,0.5-0.3,0.8c-0.2-0.3-0.5-0.6-0.5-0.8C35.9,17,35.9,16.6,36,16.4L36,16.4z M36.5,18.6
	c-0.1,0-0.1,0-0.2,0v-0.2C36.4,18.5,36.4,18.5,36.5,18.6C36.5,18.6,36.5,18.6,36.5,18.6z M33.9,1.9h2v8.7c-0.5,0.3-0.8,0.5-0.8,0.5
	s-1.8,0.8-1.1,1.2c0.8,0.5,0.9,0.7,0.9,0.7s-0.8,1.7-0.5,2.6c0.4,1.2,1,1.1,1,1.1s0,0,0.1-0.1c0,0.2,0,0.5,0,0.7
	c0.1,0.2,0.2,0.4,0.3,0.5v0.6c-0.1,0-0.1,0-0.2,0c-0.4-0.1-0.8-0.1-1.2-0.2c-0.1,0-0.3,0-0.6-0.1c0,0-0.1,0-0.1,0L33.9,1.9L33.9,1.9
	z M31.4,1.9h2v16.3c-0.6-0.1-1.3-0.2-2-0.3C31.4,17.9,31.4,1.9,31.4,1.9z M29,1.9h2v16c-0.7-0.1-1.5-0.1-2-0.2
	C29,17.7,29,1.9,29,1.9z M26.5,1.9h2v15.8c-0.2,0-0.3,0-0.4,0c-0.4,0-1,0.1-1.6,0.2C26.5,18,26.5,1.9,26.5,1.9z M24.1,1.9h2V18
	c-0.7,0.1-1.4,0.3-2,0.6C24.1,18.6,24.1,1.9,24.1,1.9z M21.7,1.9h2v17c0,0-0.1,0-0.2,0.1c0,0-1.1,0.6-1.9,1.2
	C21.7,20.1,21.7,1.9,21.7,1.9z M16.8,65.6C16.9,65.8,17,66,17,66s-0.1-0.1-0.2-0.3C16.8,65.8,16.8,65.6,16.8,65.6z M14.3,70.7
	c0.5,1.2,1.2,2.6,1.2,2.6s-0.9-0.6-0.9-0.9c-0.1-0.5-0.2-0.8-0.3-0.9V70.7z M11.9,23.1c0,0,0.1,0.1,0.1,0.1c0.6,0.8,1.6,3.3,1.6,3.3
	s-0.4-0.2-1.5-0.8c-0.1,0-0.1-0.1-0.2-0.1V23.1z M11.9,27.2c0.2,0.2,0.3,0.4,0.5,0.6c0.4,0.6,0.5,1.5,0.5,1.5s-0.5-0.3-1-0.7V27.2z
	 M11.9,30.9c0.4,0.7,0.7,1.4,0.7,1.4s-0.3-0.1-0.7-0.3V30.9z M11.5,21.2c-1-0.3-1.6-0.3-1.6-0.1c0,0.2,0.9,0.8,1.6,1.5v2.6
	c-0.8-0.5-1.6-1.1-1.6-0.8c0,1,0.8,1.6,1.6,2.4v1.6c-0.1-0.1-0.2-0.1-0.3-0.2c-0.5-0.3-1.4-1.1-1.4-0.7c0,0.6,0.2,1,1.3,2.1
	c0.1,0.1,0.2,0.3,0.4,0.6v1.6c-0.7-0.3-1.5-0.4-1.5-0.1c-0.1,0.7,1,0.8,1.5,2.4c0,0.1,0,0.2,0.1,0.2v34.3c-1.3-3.6-2.1-7.4-2.1-11.4
	V1.9h2.1V21.2L11.5,21.2z M13.9,58.9c-0.2-0.1-0.2-0.2-0.2-0.2S13,59,13.9,60.3v6.9c0-0.1-0.1-0.1-0.1-0.1c-0.1,0-0.5,0.8,0.1,2.5
	v4.2c-0.8-1.3-1.5-2.7-2-4.1V39c0,0.2,0.1,0.4,0.1,0.6c0.1,0.5,0.9,1.1,1.9,1.8L13.9,58.9L13.9,58.9z M13.9,22.6
	c-0.3-0.3-0.7-0.6-1.1-0.8c-0.3-0.2-0.6-0.3-0.9-0.4V1.9h2L13.9,22.6L13.9,22.6z M16.4,77.4c-0.7-0.9-1.4-1.9-2-2.9v-1.6
	c0.2,0.7,0.6,1.6,1.3,2.7c0.2,0.3,0.4,0.6,0.7,1V77.4L16.4,77.4z M16.4,65.3c-0.2-0.2-0.4-0.4-0.6-0.5c-0.6-0.4-1.2-0.7-1.3-0.5
	c0,0.1,0,0.2,0,0.4c0,0.3,0.2,0.8,0.5,1.3c0.5,0.8,0.1,1.2,0.5,2.1c0.3,0.6,0.6,1.1,0.8,1.4v0.2c-0.2-0.1-0.6-0.3-1.2-0.8
	c-0.4-0.3-0.7-0.7-0.8-0.9v-7.2c0.8,0.9,1.2,2,1.6,2.9c0.1,0.2,0.3,0.5,0.4,0.9L16.4,65.3L16.4,65.3z M16.4,60.8
	c-0.4-0.3-0.8-0.6-1.1-0.9c-0.3-0.3-0.7-0.5-0.9-0.7V41.6c0.6,0.4,1.3,0.7,2,1.1C16.4,42.7,16.4,60.8,16.4,60.8z M16.4,35.7
	c-0.8-2.4-0.1-4.8,0-6.9V35.7z M16.4,27.6c0-0.4-0.1-0.7-0.2-1c-0.5-1.6-1.1-2.8-1.9-3.7V1.9h2L16.4,27.6L16.4,27.6z M18.8,80.2
	c-0.7-0.7-1.4-1.5-2-2.3v-0.8c0.5,0.6,1.2,1.2,2,1.7V80.2L18.8,80.2z M18.8,63.7c-0.3-0.6-0.7-1.2-1.1-1.8c-0.2-0.3-0.5-0.6-0.9-0.8
	V42.9c0.7,0.3,1.4,0.6,2,0.8V63.7L18.8,63.7z M18.8,38c-0.9-0.4-1.7-0.9-2-1.4V1.9h2V38L18.8,38z M21.3,82.5c-0.7-0.6-1.4-1.2-2-1.9
	v-1.6c0.5,0.3,1.1,0.5,1.8,0.7c0.1,0,0.2,0,0.3,0.1L21.3,82.5L21.3,82.5z M21.3,74.9c-0.3,0-0.6-0.1-0.8-0.5
	c-0.6-0.8,0.4-4.9-0.6-7.9c-0.2-0.6-0.4-1.3-0.7-1.9V43.9c0.7,0.2,1.4,0.3,2,0.4L21.3,74.9L21.3,74.9z M21.3,20.4
	c-0.2,0.2-0.3,0.3-0.2,0.4l0,0.2l0.1,0c0,0,0,0,0.1,0v17.7c-0.7-0.2-1.4-0.4-2-0.6V1.9h2L21.3,20.4L21.3,20.4z M23.7,84.5
	c-0.7-0.5-1.4-1-2-1.6v-3c0.5,0.1,1.3,0.2,2,0.3V84.5z M23.7,44.6c-0.1,0.1-0.3,0.2-0.5,0.2c-0.7,0.2-1.5,0.4-1.5,0.4
	s-0.1,0.7,2,0.8v27.4c-0.5,0.5-1.3,1.2-2,1.5V44.3c0.8,0,1.5-0.1,2-0.2V44.6L23.7,44.6z M23.7,39.2c-0.7-0.1-1.4-0.2-2-0.4V21.1
	c0.7,0.2,1.5,0.4,1.9,0.2c0,0,0.1,0,0.1,0L23.7,39.2L23.7,39.2z M26.1,86.1c-0.7-0.4-1.4-0.9-2-1.3v-4.6c0.7,0,1.4,0,2-0.2V86.1z
	 M26.1,70.5c-0.8,1-1.5,1.9-2,2.5V47.6c0.3,0.1,1,0.3,2,0.1V70.5z M26.1,46.1c-0.7,0.4-1.6,0.8-2,1.1V46c0,0,0,0,0.1,0
	c0.5,0,1.3-0.2,2-0.5V46.1z M24.1,44.3V44c0.2,0,0.3-0.1,0.3-0.1S24.3,44.1,24.1,44.3L24.1,44.3z M26.1,39.4c-0.6,0-1.3-0.1-2-0.2
	V21.1c0.2-0.1,0.3-0.2,0.5-0.2c0.3-0.2,0.8-0.4,0.9-0.4h0c0,0,0.2,0.1,0.3,0.1c0.1,0,0.2,0.1,0.3,0.1V39.4L26.1,39.4z M28.6,87.4
	c-0.7-0.4-1.4-0.7-2-1.1v-6.5c0.1,0,0.2-0.1,0.3-0.1c0.5-0.2,1.1-0.7,1.7-1.2V87.4L28.6,87.4z M28.6,67.5C28,68,27.3,69,26.5,70
	V47.6c0.3-0.1,0.7-0.1,1.1-0.2c0.3-0.1,0.7-0.2,0.9-0.3L28.6,67.5L28.6,67.5z M26.5,45.9v-0.6c0.7-0.3,1.3-0.6,1.3-0.6
	S27.3,45.3,26.5,45.9z M28.6,39.4c-0.3,0-0.5,0-0.8,0c-0.4,0-0.8,0-1.2,0V21c0.6,0.2,1.3,0.4,2,0.5L28.6,39.4L28.6,39.4z M31,88.6
	c-0.7-0.3-1.4-0.6-2-0.9v-9.5c0.6-0.6,1.3-1.2,2-2V88.6L31,88.6z M31,46.9c0,0-0.1,0.1-0.1,0.1c-1.3,2.5-1.1,3.9-1.4,5.3
	c-0.1,0.6-0.3,1.3-0.3,1.3s0.7-0.1,1.2-0.6c0.2-0.3,0.4-0.6,0.6-0.9v1.4c-0.3,0.5-0.7,1.3-0.6,4c0,1.4,0.3,2.2,0.6,2.6v5.4
	c-0.8,0.7-1.5,1.2-1.9,1.5c0,0-0.1,0.1-0.1,0.1V47c0.9-0.4,1.6-0.8,2-1.2L31,46.9L31,46.9z M31,39.2c-0.6,0.1-1.2,0.1-2,0.2v-18
	c0.1,0,0.2,0,0.3,0c0.4-0.1,1-0.2,1.7-0.3V39.2L31,39.2z M33.5,89.5c-0.7-0.2-1.4-0.5-2-0.8V75.8c0.7-0.7,1.4-1.4,2-2.1V89.5z
	 M33.5,63.2c-0.6,0.5-1.3,1.2-2,1.9v-4.6c0.1,0,0.1,0.1,0.2,0.1c0.5,0.3,0.9,0,0.5-1c-0.2-0.5,0.2-1.3,0.2-1.3s0.1,0.3,0.6,0.9
	c0.2,0.2,0.1,0.8,0.5,1.3L33.5,63.2L33.5,63.2z M33.5,40.3c-1,1.3-1.8,2.6-1.8,2.6s0.5-0.5,1.2-0.7c0.2,0,0.4-0.1,0.5-0.1v0.5
	c-0.4,0.7-1.3,2-2,3.3v-0.7c0.4-0.5,0.6-0.9,0.8-1.2c0.5-0.7,1.1-1.7,1.1-1.7c-0.2,0-0.2-0.1-1,0.4c-0.1,0.1-0.6,0.4-0.9,0.6v-0.6
	c0.3-0.5,0.7-1.1,1.3-2c0.2-0.4,0.5-0.7,0.7-1V40.3L33.5,40.3z M33.5,38.6c-0.4,0.2-1.1,0.4-2,0.6V21c0.2,0,0.4-0.1,0.7-0.1
	c0.4-0.1,0.9-0.2,1.4-0.3L33.5,38.6L33.5,38.6z M35.9,90.2c-0.7-0.2-1.4-0.4-2-0.6V73.2c0.7-0.7,1.4-1.5,2-2.1V90.2L35.9,90.2z
	 M35.9,60.3c-0.6,0.8-1.2,1.6-1.9,2.4c0,0-0.1,0.1-0.1,0.1v-1.9c0.5,0.3,1-0.1,1-0.1s0.4-0.8,1.1-1.9V60.3z M35.9,35
	c-1,1.3-1.4,2.4-1.2,2.6c0.3,0.3,0.3,0.2,1.2-0.4v0.6c-0.6,0.5-1.2,1-1.7,1.5c-0.1,0.1-0.3,0.3-0.4,0.4v-0.4c0.7-0.8,1.3-1.3,1-1.3
	c-0.3-0.1-0.5,0.1-1,0.3V20.5c0.8-0.2,1.5-0.3,2-0.4v1.2c-0.3,0.2-0.6,0.6-0.7,0.9c-0.2,0-0.2,0-0.2,0s-0.2,0.7-0.2,1.2
	c0,0.5,0.1,1.4,0.1,1.4s0.4,0,1.1,0V35L35.9,35z M35.6,22.2c0.2-0.3,0.6-0.7,0.9-0.9c0.2-0.2,0.3-0.4,0.4-0.7
	c0.3,0.4,0.7,0.9,0.8,1.3c0,0.1,0.1,0.2,0,0.3c0,0-0.1,0-0.1,0c-0.6,0-1.1,0-1.4,0C36,22.2,35.8,22.2,35.6,22.2L35.6,22.2z
	 M36.3,20.9V20c0.1,0,0.3,0,0.4,0l0,0.2C36.6,20.2,36.5,20.6,36.3,20.9L36.3,20.9z M38.3,20.3c-0.1,0.1-0.2,0.3-0.2,0.5
	c0,0.1-0.1,0.2-0.3,0.4c-0.3-0.6-0.8-1.1-0.8-1.2L36.9,20c0.4,0,0.9,0,1.4,0.1V20.3z M38.5,20.9c0.1-0.2,0.2-0.3,0.2-0.5
	c0.2,0.1,0.6,0.4,0.9,0.7c0.2,0.3,0.2,0.8,0.1,1.1c-0.5,0-1.1-0.1-1.5-0.1c0-0.1,0-0.3-0.1-0.5c0-0.1-0.1-0.1-0.1-0.2
	C38.2,21.3,38.4,21.1,38.5,20.9L38.5,20.9z M36.3,37c0.8-0.5,1.1-0.4,1.1-0.4s-0.5,0.4-1.1,0.9V37z M38.3,70.5
	c-0.8,0.7-1.3,1.2-1.4,1.2c-0.1,0.2,0.5,1.4,0.5,3c0,0.6,0,2.3,0.2,3.1c0.1,0.4,0.4,1,0.7,1.3v11.7c-0.7-0.1-1.4-0.3-2-0.5V70.8
	c0.1-0.1,0.3-0.3,0.4-0.4c0.5-0.4,1-0.9,1.6-1.3V70.5L38.3,70.5z M38.3,56.8c-0.4,0.7-1.1,1.8-2,3v-1.5c0.6-1.1,1.4-2.3,2-3.3V56.8z
	 M38.3,32.5c-0.3,0.2-0.6,0.5-0.9,0.7c-0.4,0.4-0.8,0.9-1.2,1.3v-9.8c0.6,0,1.3,0.1,2,0.1L38.3,32.5L38.3,32.5z M40.8,91.2
	c-0.7-0.1-1.4-0.2-2-0.3V79.6c0.1,0.1,0.2,0.1,0.3,0.1c0.6-0.6-0.1-2.5,0.2-3.5c0.4-1.3,0.7-1.5,0.7-1.5s0.7,2.1,0.9,3L40.8,91.2
	L40.8,91.2z M40.8,68.7c-0.7,0.5-1.4,1-2,1.5v-1.4c0.7-0.5,1.4-0.9,2-1.3V68.7L40.8,68.7z M40.8,53.3c-0.8,1-1.6,2.1-2,2.8v-1.7
	c0.3-0.4,0.5-0.7,0.7-1c0.5-0.6,0.9-1.1,1.3-1.6V53.3L40.8,53.3z M40.8,31c-0.7,0.4-1.4,0.9-2,1.3v-7.5c0.6,0,1.2,0.1,1.7,0.1
	c0.1,0,0.3,0,0.4,0V31L40.8,31z M40.8,22.4c-0.2,0-0.5,0-0.7-0.1c0.1-0.4,0.1-1-0.2-1.4c-0.3-0.4-0.7-0.7-0.9-0.8
	c0.7,0.1,1.4,0.1,1.8,0.2V22.4z M43.2,91.4c-0.7,0-1.4-0.1-2-0.2V78.8c0.6,1.5,1.7,3.4,1.7,3.4s0.1,0.1,0.3,0.3V91.4z M43.2,67.3
	c-0.7,0.3-1.4,0.7-2,1.1v-1.2c0.7-0.4,1.4-0.7,2-1V67.3L43.2,67.3z M43.2,51c-0.7,0.5-1.4,1.2-2,1.9v-1.4c0.8-0.8,1.4-1.4,2-1.8
	C43.2,49.7,43.2,51,43.2,51z M43.2,29.5c-0.6,0.4-1.3,0.8-2,1.3v-5.8c0.7,0,1.5,0,2,0.1V29.5L43.2,29.5z M43.2,22.3
	c0,0.1-0.1,0.2-0.1,0.2s-0.6,0.1-1.5,0c-0.1,0-0.3,0-0.5,0v-2.1c0,0,0,0,0,0c0.4,0.1,1.4,0.4,2,0.6L43.2,22.3L43.2,22.3z M42.2,20.3
	c0,0-0.1,0-0.1,0c0,0-0.1,0-0.1,0c-0.1,0-0.1,0-0.2,0c0,0-0.1,0-0.1,0c-0.1,0-0.1,0-0.2,0c0,0-0.1,0-0.1,0c-0.1,0-0.1,0-0.2,0
	c0,0,0,0,0,0c0,0-0.1,0-0.1,0l0,0c-0.1,0-0.2,0-0.4-0.1l0,0c-0.5-0.1-1.1-0.1-1.8-0.2c0,0,0,0,0,0c-0.1,0-0.2,0-0.3,0c0,0,0,0,0,0
	c-0.3,0-0.5,0-0.8-0.1c0,0-0.1,0-0.1,0c-0.1,0-0.1,0-0.2,0c0,0-0.1,0-0.1,0c0,0-0.1,0-0.1,0c0,0-0.1,0-0.1,0c0,0-0.1,0-0.1,0
	c0,0-0.1,0-0.1,0c0,0-0.1,0-0.1,0c-0.1,0-0.1,0-0.2,0c0,0,0,0,0,0c-0.1,0-0.2,0-0.3,0c0,0,0,0,0,0c-0.2,0-0.4,0-0.6,0.1
	c-0.2,0-0.3,0.1-0.5,0.1c-0.1,0-0.2,0-0.3,0.1c0,0-0.1,0-0.1,0c-0.2,0-0.3,0.1-0.5,0.1c-0.1,0-0.2,0-0.3,0.1
	c-0.7,0.1-1.4,0.3-2.1,0.4c-0.1,0-0.3,0.1-0.4,0.1c-1,0.2-1.8,0.4-2.3,0.5c-1.1,0.2-2.3-0.3-3.1-0.6c-0.1,0-0.2-0.1-0.2-0.1
	c-0.1,0-0.2-0.1-0.2-0.1c-0.1,0-0.1,0-0.1,0c0,0,0,0,0,0c0,0,0,0-0.1,0c-0.2,0-0.5,0.2-1.1,0.4c-0.1,0-0.2,0.1-0.3,0.1
	c-0.2,0.1-0.5,0.2-0.6,0.3c0,0,0,0,0,0c-0.4,0.1-1.2-0.1-1.7-0.2c-0.1,0-0.2,0-0.2-0.1l0,0l0,0c0.3-0.3,1.2-0.9,2.2-1.4
	c1.3-0.7,3.1-1,4.2-1.1c0.1,0,0.2,0,0.3,0c1.1-0.1,4.3,0.3,5.7,0.5c0.2,0,0.4,0.1,0.6,0.1c0.4,0,0.7,0.1,1.1,0.2c0,0,0,0,0.1,0
	c0.1,0,0.3,0,0.4,0.1c0.4,0.1,0.8,0.1,1.2,0.2c0.6,0.1,1.7,0,2.6,0c0.2,0,0.3,0,0.5,0l0,0c0.3,0,0.6,0,0.8,0c0.5,0,1,0.2,1.3,0.4
	c0.2,0.1,0.3,0.2,0.5,0.2c0,0,0,0,0,0c0.1,0,0.2,0,0.3,0v0c0.1,0,0.3,0,0.4-0.1l0,0c0.1,0,0.1,0,0.2,0c0,0.4-0.1,0.8-0.2,1.2
	c0,0,0,0,0,0l0,0c-0.1,0-0.3-0.1-0.4-0.1l0,0C42.9,20.5,42.6,20.4,42.2,20.3L42.2,20.3z M43.6,19.1v-1.5c0.1,0.5,0.2,1,0.2,1.4
	C43.7,19.1,43.7,19.1,43.6,19.1z M43.9,25.1c0.5,0.2,1.2,1.4,1.2,2.2c0,0.6-0.6,1.2-1.5,1.8V25C43.7,25.1,43.8,25.1,43.9,25.1
	L43.9,25.1z M45.6,91.5c-0.7,0-1.4,0-2-0.1v-8.6c0.4,0.3,0.9,0.7,1,0.4c0.1-0.4-0.5-0.9-0.7-1.3c-0.3-1-0.2-1.9-0.1-1.9
	c0.2,0,1,1.3,1.8,2.4V91.5z M45.6,66.6c-0.7,0.1-1.4,0.3-2,0.6c0,0,0,0,0,0v-1.1c0.9-0.4,1.6-0.6,2-0.7V66.6z M45.6,49.5
	c-0.6,0.3-1.3,0.7-2,1.2v-1.3c0.9-0.6,1.6-0.9,2-1C45.6,48.4,45.6,49.5,45.6,49.5z M45.6,5.7c-0.7,0.3-1.4,0.5-2,0.8V1.9h2V5.7
	L45.6,5.7z M75.3,1.9h2v9.7c-0.5,0.9-1.3,2.1-2,3.4V1.9L75.3,1.9z M72.9,1.9h2v13.8c-0.7,1.1-1.4,2.2-2,3.2V1.9L72.9,1.9z M70.4,1.9
	h2v17.7c-0.6,0.9-1.1,1.7-1.6,2.4c-0.1,0.2-0.3,0.4-0.4,0.6V1.9L70.4,1.9z M68,1.9h2V7c-0.4,0-1.1-0.1-2-0.1V1.9L68,1.9z M68,9.2
	c0.6-0.5,1.2-0.9,1.7-1.3c0.1-0.1,0.2-0.2,0.3-0.3v15.3c-0.7,0.8-1.4,1.5-2,2.2V9.2L68,9.2z M65.6,1.9h2v5c-0.6,0-1.4,0-2,0V1.9
	L65.6,1.9z M65.6,26.5c0.2,0,0.3-0.1,0.2-0.3c0-0.1-0.1-0.2-0.2-0.3v-1.7c0.1,0.3,0.1,0.5,0.2,0.7c0.3,0.6,0.7,0.9,0.7,0.9
	s0.8-1.4-0.8-4.7c0,0-0.1-0.1-0.1-0.1v-9.6c0.6-0.6,1.3-1.3,2-1.8v16c-0.7,0.7-1.4,1.3-2,1.8L65.6,26.5L65.6,26.5z M63.1,1.9h2v5
	C64.6,6.9,64,7,63.5,7c-0.1,0-0.3,0-0.4,0.1V1.9L63.1,1.9z M63.1,14.2c0.4-0.6,1.1-1.5,2-2.5v8.4c-0.4-0.7-0.9-1.6-1-2.2
	c-0.2-0.9-0.6-1.7-1-2.2V14.2z M63.4,27.8c0.1-0.7,0-2.1,0-2.1s0.3,0.3,0.7,0.5c0.4,0.2,0.8,0.3,1,0.3v1.1c-1.1,0.8-1.9,1.3-1.9,1.4
	l0,0h0C63.3,29,63.2,28.5,63.4,27.8L63.4,27.8z M64.6,24.8c-0.3-0.5-0.3-1.1-0.5-1.5c-0.3-0.8-0.5-1.2-0.5-1.2s1.1,0.7,1.5,1.2v2.3
	C65,25.4,64.8,25.2,64.6,24.8L64.6,24.8z M60.7,1.9h2v5.3c-0.9,0.2-1.7,0.5-2,0.7V1.9L60.7,1.9z M62.7,14.8v0.6
	c-0.1-0.2-0.2-0.2-0.2-0.2S62.6,15,62.7,14.8z M58.2,1.9h2v6c-0.2-0.3-0.9-1.2-2-2V1.9L58.2,1.9z M55.8,1.9h2v3.7
	c-0.6-0.3-1.2-0.6-2-0.8V1.9L55.8,1.9z M53.4,1.9h2v2.8c-0.5-0.1-1-0.2-1.6-0.3c-0.1,0-0.3,0-0.4,0V1.9L53.4,1.9z M50.9,1.9h2v2.5
	c-0.7,0-1.4,0-2,0.1V1.9L50.9,1.9z M48.5,1.9h2v2.6c-0.7,0.1-1.4,0.2-2,0.4V1.9L48.5,1.9z M50.7,9.6c0,0-0.8,0.9-1.2,1.3
	c-0.3,0.4-0.6,1.2-0.6,1.2s0.9,0.1,1.8,0.1c0.9-0.1,2.2-0.1,2.2-0.1l0.6-0.5c0,0,0.1,0.5,0.1,0.8c0,0.3,0.2,0.8,0.2,0.8
	s-0.4-0.1-0.7-0.1s-2.1,0.1-3.5,0.1c-1.2,0-3.1,0.1-3.4,0.3c0,0.1-0.1,0.1-0.1,0.1c0,0,0,0,0.1-0.1c0.4-0.5,2.1-3.5,2.1-3.5
	S50.7,9.6,50.7,9.6z M46,1.9h2V5c-0.7,0.2-1.4,0.4-2,0.6V1.9L46,1.9z M46,48.3c0.3,0,0.5,0.8,0.5,0.8s-0.2,0.1-0.5,0.2V48.3z
	 M48.1,91.5c-0.7,0-1.4,0.1-2,0.1v-8.8c0.1,0.2,0.3,0.3,0.4,0.4c0.4,0.4,1,0.9,1.6,1.4L48.1,91.5L48.1,91.5z M48.1,66.4
	c-0.6,0-1.3,0.1-2,0.2v-1.1c0.7,0,1.4,0.1,2,0V66.4z M50.5,91.2c-0.7,0.1-1.4,0.1-2,0.2V85c0.8,0.7,1.6,1.5,2,2.1V91.2L50.5,91.2z
	 M50.5,65.9c-0.2,0.3-0.3,0.4-0.3,0.4c-0.1,0-0.7,0-1.7,0v-1c0.2,0,0.5-0.1,0.7-0.2c0.3-0.2,0.8-0.7,1.3-1.3V65.9L50.5,65.9z
	 M47.7,14.2l2.1,0.1c0,0,0.1,1.1,0.9,1c0.8-0.1,1.8-1.2,1.8-1.2h1.9c0,0-1.6,3.1-3.7,3C48.6,16.9,47.7,14.2,47.7,14.2L47.7,14.2z
	 M50.9,91.2v-3.5c0.5,0.9,0.9,2.3,1.2,3.3C51.7,91.1,51.3,91.1,50.9,91.2L50.9,91.2z M53,61.8c-0.3,0.8-1.4,2.4-2.1,3.5v-2
	c0.9-1.2,1.8-2.6,1.8-2.6S53.3,61,53,61.8z M67.6,81.3c-1.4-1.8-2-4-2-4l0,0c0,0,0,0,0,0c0,0,1.1,0.6,2,1V81.3z M70,82.9
	c-0.1,0.1-0.3,0.2-0.4,0.3c-0.5-0.4-1-0.9-1.4-1.3c-0.1-0.1-0.1-0.1-0.2-0.2v-3.4c0.3,0.1,0.5,0.2,0.6,0.2c0.4,0.1,0.9,0.2,1.4,0.2
	V82.9z M68.7,78.2c-0.4-0.1-2-0.9-2.9-1.3c-0.4-0.3-7.8-5.2-8.9-10.2c-1.1-5.2-0.2-7.7,1-10.3c0.2-0.4,0.4-0.8,0.6-1.2
	c1.1-2,2.1-3.9-0.2-6.6c-0.4-0.4-0.9-0.7-1.4-0.7c-1.2-0.1-2.4,0.7-3,1.1c-0.6-0.7-2.4-3.1-0.7-7.9c1.1-3,3.2-5.7,4.8-7.2
	c1.6-1.5,5.6-4.5,5.6-4.5c0,0,4.6-2.9,7.7-7.2c2.2-3.1,5.3-8.3,6.9-11c-0.1,1.7-0.4,4.8-1.5,8.5c-2.5,8.8-10.8,18.9-10.9,19
	c-0.1,0.2-0.1,0.4,0,0.5c0.2,0.1,0.4,0.1,0.6,0c0.3-0.3,2.6-2.6,3.7-3.2c0.7-0.4,1.3-0.8,2-1.3c0.7-0.5,1.5-1,2.3-1.5
	c0.9-0.5,1.9-1.3,2.6-1.8c-0.2,1.4-0.8,4-1.9,5.7c-1.6,2.5-4.8,6.9-6.7,8.6c-0.6,0.5-1.7,2.2-1.8,2.4c-0.1,0.1-0.1,0.2-0.1,0.3
	c0,0.1,0.1,0.2,0.2,0.2c0.2,0.1,0.4,0.1,0.5-0.1c0,0,0.5-0.8,1.7-1c1.4-0.3,4.9-2.4,5.9-3.4c0.4-0.4,1-1.1,1.6-1.8
	c-0.5,1.8-1.4,4.6-2.3,5.9c-1.4,2.2-4.8,5.5-6.1,6.7c-0.2,0.2-0.3,0.3-0.4,0.4c-0.5,0.5-1.7,1.5-1.8,1.5c-0.2,0.2-0.2,0.5-0.1,0.6
	c0.2,0.2,0.4,0.1,0.6,0c0.1,0,1.1-1.1,4.6-1.1c4,0,6.3-0.1,7.3-0.2c-0.2,0.8-0.9,2.7-3.6,3.8c-2.3,1-3.8,1.5-4.7,1.9
	c-0.7,0.2-1.1,0.4-1.5,0.6c-0.5,0.2-2.1,1.1-2.7,1.5c-0.3,0.2-0.5,0.4-0.4,0.7c0.2,0.3,0.5,0.2,0.6,0.1c0.1,0,1.1-0.8,1.9-0.6
	c3.5,1,7.5,3.5,9.1,4.5c-0.9,0.3-2.5,0.9-3.8,1.2c-2,0.3-6.4,0.5-6.6,0.5c-0.3,0.1-0.4,0.2-0.4,0.4c0,0.2,0.2,0.3,0.3,0.3
	c0.2,0,0.3,0,0.5,0c0.6,0,2,0.4,4.2,2.3c1.2,1.1,2,2.5,2,3.5c0,0.3-0.1,0.5-0.2,0.6C71.8,78.6,70,78.5,68.7,78.2L68.7,78.2z
	 M76.8,41.4c-0.1,0-0.2,0-0.2,0c-0.4,0.5-0.9,1-1.3,1.5v-5.5c1.3-2.1,1.9-5.2,2-6.4c0-0.1,0-0.2-0.1-0.2c-0.1,0-0.2,0-0.2,0
	c-0.4,0.3-1,0.8-1.7,1.3v-7.8c0.7-1.5,1.3-3,1.7-4.5c0.1-0.5,0.3-1,0.4-1.4v37.5c-0.5,0-1.2,0.1-2,0.1v-9.4c0.7-1.6,1.3-3.6,1.6-4.9
	C77,41.5,76.9,41.4,76.8,41.4L76.8,41.4z M74.9,25.2v7.2c-0.3,0.2-0.6,0.4-0.9,0.5c-0.4,0.2-0.8,0.5-1.2,0.7V29
	C73.6,27.8,74.3,26.5,74.9,25.2L74.9,25.2z M72.5,29.7v4.2c-0.3,0.2-0.5,0.4-0.8,0.5c-0.4,0.3-0.8,0.6-1.3,0.8v-2.3
	C71.1,31.9,71.8,30.8,72.5,29.7L72.5,29.7z M70,33.5v2c-0.1,0.1-0.2,0.1-0.3,0.2c-0.5,0.3-1.1,0.8-1.8,1.4v-0.7
	C68.6,35.6,69.3,34.6,70,33.5L70,33.5z M67.6,36.9v0.5c-0.8,0.7-1.5,1.4-1.6,1.5C66,38.9,66.6,38.2,67.6,36.9z M74.9,38v5.4
	c-0.2,0.2-0.3,0.4-0.5,0.5c-0.3,0.3-0.9,0.7-1.5,1.2v-4.2C73.6,39.9,74.3,38.8,74.9,38z M72.5,41.4v3.9c-0.7,0.4-1.4,0.8-2,1.2V44
	C71.1,43.2,71.8,42.3,72.5,41.4z M70,44.5v2.2c-0.5,0.2-1,0.4-1.3,0.5c-0.3,0.1-0.5,0.2-0.7,0.3v-0.8c0.2-0.2,0.4-0.5,0.5-0.6
	C69,45.6,69.5,45.1,70,44.5L70,44.5z M67.6,47.2v0.5c-0.5,0.3-0.8,0.7-0.8,0.7C66.8,48.3,67.2,47.7,67.6,47.2L67.6,47.2z M74.9,47.4
	v8.5c-0.6,0-1.3,0-2,0v-5.6c0.6-0.7,1.1-1.4,1.5-2C74.5,48.2,74.7,47.8,74.9,47.4L74.9,47.4z M72.5,50.9V56c-0.5,0-1.1,0-1.7,0
	c-0.1,0-0.3,0-0.4,0v-3C71.1,52.4,71.8,51.6,72.5,50.9L72.5,50.9z M70,53.4V56c-0.8,0-1.5,0.1-2,0.3v-0.9c0.1-0.1,0.1-0.1,0.2-0.2
	C68.6,54.8,69.3,54.2,70,53.4L70,53.4z M67.6,55.8v0.6c-0.5,0.1-0.9,0.3-1.2,0.5C66.8,56.5,67.3,56,67.6,55.8L67.6,55.8z M74.9,60.2
	v6.7c-0.6-0.4-1.3-0.8-2-1.1v-4.7c0.5-0.2,1.1-0.5,1.8-0.7C74.8,60.3,74.8,60.3,74.9,60.2z M72.5,61.2v4.3c-0.7-0.3-1.4-0.7-2-1V62
	C71,61.8,71.6,61.6,72.5,61.2z M70,62.2v2.3c-0.7-0.3-1.4-0.5-2-0.7v-0.7c0.2-0.1,0.4-0.2,0.5-0.3C68.9,62.6,69.3,62.4,70,62.2
	C70,62.2,70,62.2,70,62.2L70,62.2z M67.6,63.3v0.4c-0.4,0-0.8,0.1-1.2,0.3C66.8,63.7,67.2,63.5,67.6,63.3z M72.5,70.3v4
	c-0.3-0.4-0.7-0.8-1-1.2c-0.4-0.3-0.7-0.6-1-0.9v-1.8C71.1,70.5,71.9,70.4,72.5,70.3L72.5,70.3z M70,70.6V72c-0.8-0.6-1.5-0.9-2-1.1
	v-0.2c0.3,0,0.7,0,1.1-0.1C69.4,70.6,69.7,70.6,70,70.6L70,70.6z M67.6,70.7L67.6,70.7c-0.1,0.1-0.3,0-0.4,0
	C67.3,70.7,67.5,70.7,67.6,70.7L67.6,70.7z M72.5,80.6c-0.7,0.7-1.3,1.3-2,1.9v-3.7c0.7,0,1.4-0.1,2-0.4V80.6L72.5,80.6z M74.9,77.9
	c-0.6,0.8-1.3,1.6-2,2.3v-2.1c0.1-0.1,0.2-0.2,0.3-0.3c0.2-0.2,0.3-0.5,0.3-0.9c0-0.6-0.3-1.3-0.7-2v-4.6c0.1,0,0.2,0,0.3-0.1
	c0.5-0.1,1.1-0.2,1.7-0.4L74.9,77.9L74.9,77.9z M77.3,74.5c-0.6,1-1.3,2-2,2.9v-7.7c0.8-0.3,1.6-0.6,2-0.7V74.5z M77.3,68.4
	c-0.4-0.3-1.2-0.8-2-1.3V60c0.9-0.5,1.6-1,2-1.6V68.4L77.3,68.4z M79.8,69.7c-0.6,1.4-1.3,2.8-2,4.1V57.9c0.6-0.8,0.8-1.6,0.8-2
	c0-0.1,0-0.1-0.1-0.2s-0.1-0.1-0.2-0.1c-0.1,0-0.4,0-0.6,0V16.6c0.6-3,0.7-5.2,0.8-6.2c0-0.1-0.1-0.2-0.1-0.2c-0.1,0-0.2,0-0.2,0.1
	c-0.1,0.2-0.2,0.4-0.4,0.7V1.9h2L79.8,69.7L79.8,69.7z M82.3,57.4c0,4-0.7,7.8-2.1,11.4V1.9h2.1V57.4L82.3,57.4z"/>
</svg>
