<?xml version="1.0" encoding="utf-8"?>
<!-- Generator: Adobe Illustrator 24.0.1, SVG Export Plug-In . SVG Version: 6.00 Build 0)  -->
<svg version="1.1" id="Ebene_1" xmlns="http://www.w3.org/2000/svg" xmlns:xlink="http://www.w3.org/1999/xlink" x="0px" y="0px"
	 viewBox="0 0 620 252" style="enable-background:new 0 0 620 252;" xml:space="preserve">
<style type="text/css">
	.st0{fill:#FCFBF9;}
</style>
<g>
	<path class="st0" d="M232.7,233.3c-10.9-2.3-17.1-14.2-17.1-29.2c0-5.2,0.7-10.4,2-15.6l6.5-3.7c5.6-3.1,8-4.2,11.6-4.2
		c6.5,0,12.7,7.2,12.7,23C248.4,215.1,243.4,228,232.7,233.3 M217.9,186.9c6.5-24.1,25.7-45.8,49.8-52.2l-0.3-1.4
		c-38.3,8.9-66.1,39.2-66.1,72.9c0,19.6,10.9,30.9,25.2,30.9l12.3-4.5c16.6-5.9,23.7-19,23.7-35.4c0-13.1-8.7-24.8-19.5-25.4
		L217.9,186.9z M165,234c-9-0.7-17.3-10.6-17.3-23.5c0-10.3,6.3-18,15.2-24c8.5,7.2,16.8,14.2,16.8,24.5
		C179.7,220.7,174.5,228.8,165,234 M172.1,136.8c11.1,0.8,15.8,8.6,15.8,18c0,8.7-4.1,17.3-13.1,23c-7.9-6.8-15.1-13.7-15.1-22.4
		C159.7,147.8,163.3,140.9,172.1,136.8 M176.2,179c11.3-5.1,25-12.4,25-27.6c0-10.7-10-17.3-23.5-17.3l-9.3,3
		c-13.1,3.8-22.6,12.4-22.6,24.2c0,10.3,7.6,17.2,15.6,24.1c-12.5,5.6-27.8,13.7-27.8,29.9c0,14.1,12.5,22,25.8,22l8.3-3.1
		c16.8-5.9,27.1-15.1,27.1-28.5C194.8,194.8,185.2,186.9,176.2,179 M98.9,233.3C88,231,81.8,219.1,81.8,204.1c0-5.2,0.7-10.4,2-15.6
		l6.5-3.7c5.6-3.1,8-4.2,11.6-4.2c6.5,0,12.7,7.2,12.7,23C114.6,215.1,109.7,228,98.9,233.3 M84.1,186.9
		c6.5-24.1,25.7-45.8,49.8-52.2l-0.3-1.4c-38.3,8.9-66.1,39.2-66.1,72.9c0,19.6,10.9,30.9,25.2,30.9l12.3-4.5
		c16.6-5.9,23.7-19,23.7-35.4c0-13.1-8.7-24.8-19.5-25.4L84.1,186.9z M10.6,235H63l0.3-1.4l-19.5-0.8l11.3-64.7h-1.7l-37.6,14.8
		l0.4,1.4l24.8-8.7l-10,57.2l-20.2,0.8L10.6,235z"/>
	<path class="st0" d="M591,112.6c8.3-2.7,13.8-7.8,13.8-15.5c0-6.1-1.8-10-8.2-15.6L585,71.6c-3.2-3-5.1-5.8-5.1-10.2
		c0-3.2,1.8-6.9,5.9-8.5c5.9,2.4,12.5,5.8,17.9,9.3l6.3-9.6c-5.1-2.7-9.6-4.4-13.5-4.8l-10.7,4.1c-11.1,4.1-15.5,10.7-15.5,16.8
		c0,5.4,2.4,9.4,6.5,13l11.4,9.7c4.9,4.7,6.5,7.2,6.5,12.1c0,3.8-2.4,7.5-7.5,9.2c-8.5-4.2-14-7.9-18.9-11.4l-6.9,9.2
		c2.8,2,10,5.8,14.1,7.3L591,112.6z M536,101.6l-2.1,11.8l8.5,4.5l19.3-14.2l-0.8-0.8l-14,9.3L557.8,50H545l-8.7,49.8l-4.7,3.2
		c-6.6,4.7-9.4,6.1-13.3,6.1c-3.5,0-6.1-2.1-4.9-8.2l9.3-51.9l-1.4-1.1l-25.1,9.3l0.4,1.1l12.5-4.1l-8.7,48.5
		c-1.7,9.7,2.3,15.1,13.4,15.1L536,101.6z M456.7,107.8c-7-5.4-9.4-12.8-9.4-21.6c0-13.3,5.5-25.5,16.8-32.3c4.1,0,9.6,2,13.5,4.5
		l-6.5,36.9L456.7,107.8z M470.8,97.2l-3,16.2l9.3,4.5l17.8-14.7l-0.7-1l-13.5,9.9L491.1,53c-4.5-2.8-12.4-5.2-17.1-5.2l-10.6,5.1
		c-17.2,8.2-28.9,23.4-28.9,40.9c0,12.1,5.1,19.6,14.1,24L470.8,97.2z M431.5,103.3l-0.8-1l-13.4,9.9l8.7-49.1
		c1.7-9.6-2.4-15.2-13.4-15.2L389.9,64l8.5-47.8l-1.8-1.4l-25.1,8l0.3,1.3l13.1-3.5l-16.6,95.2h12.5l8.9-50l4.5-3.2
		c5.9-3.9,9.3-5.8,12.8-5.8c4.9,0,6.9,3.2,5.9,9.3l-8.6,47.5l9.3,4.5L431.5,103.3z M364.4,103.3l-0.8-1l-13.4,9.9l16.9-96l-1.8-1.4
		l-25.1,8l0.3,1.3l13.1-3.5l-16.4,92.9l9.3,4.5L364.4,103.3z M294,83.2v-1.8c0-12.7,6.1-22.4,17.3-28.3c5.2,1.4,8,5.8,8,12
		c0,3.5-0.4,6.6-2,9.9L294,83.2z M333.5,62.8c0-8.2-4.4-13.4-12.1-14.9l-11.8,4.8c-17.8,6.9-28.1,21-28.1,38.2
		c0,14.1,9.3,25.4,22,26.9l9.6-6.2c6.3-4.2,11.8-7.8,16.6-11.3l-1-1.3c-2.7,1.8-9.3,5.8-17.3,10.3c-10.4-3.8-16.4-12.4-17.2-24.7
		l36.5-11.4C332.7,69.7,333.5,66.7,333.5,62.8 M278.7,103.3l-0.8-1l-13.4,9.9l8.7-49.1c1.7-9.6-2.4-15.2-13.4-15.2L237.1,64
		l8.5-47.8l-1.8-1.4l-25.1,8l0.3,1.3l13.1-3.5l-16.6,95.2H228l8.9-50l4.5-3.2c5.9-3.9,9.3-5.8,12.8-5.8c4.9,0,6.9,3.2,5.9,9.3
		l-8.6,47.5l9.3,4.5L278.7,103.3z M195.1,111.4c6.2-4.2,11.6-7.8,16.5-11.6l-0.8-1.1c-4.2,3-13.4,8.3-17.9,10.6
		c-8.5-3.1-15.8-11.7-15.8-26.8c0-9.9,3.5-20.6,15.6-27.9c5.8,2.3,11.6,4.8,16.9,8.5l6.6-10c-3.7-2.4-9.2-4.9-12.7-5.2l-11.1,5.5
		c-18.9,9-28.8,20.6-28.8,37.8c0,16.9,12.1,26.4,22.3,26.6L195.1,111.4z M160.2,103.3l-0.7-1L146,112.4L157.1,49l-1.4-1.1L130.6,58
		l0.3,1.3l12.5-4.5l-10.3,58.6l9.2,4.5L160.2,103.3z M161.1,34.4l2.5-6.3v-7.6l-9-0.8l-4.7,0.8l-2.7,6.6l-0.4,7.3l10,0.8L161.1,34.4
		z M9,115.7h25.1l0.3-1.4l-11.1-0.8l14.4-91.9l19.9,94.3h8l47.7-94.6l-14,92.2l-11,0.8l-0.1,1.4h36.1l0.3-1.4l-10.9-0.8l14.2-94.2
		l10.4-0.8l0.3-1.4h-26.5l-43,84.2L51.8,17H25.2l-0.3,1.4l10.3,0.8l-14.9,94.2l-10.9,0.8L9,115.7z"/>
</g>
</svg>
